<svg width="1080" height="2280" viewBox="0 0 1080 2280" fill="none" xmlns="http://www.w3.org/2000/svg">
<mask id="mask0_54_2368" style="mask-type:alpha" maskUnits="userSpaceOnUse" x="0" y="0" width="1080" height="2280">
<rect width="1080" height="2280" fill="#F8F4E8"/>
</mask>
<g mask="url(#mask0_54_2368)">
<rect width="1080" height="2280" fill="#F8F4E8"/>
<path d="M1148.1 2565.96H-119.49V1996.02H1148.1V2565.96Z" fill="#8ACED7"/>
<path fill-rule="evenodd" clip-rule="evenodd" d="M0 2214.89L22.8619 2210.99C44.5808 2208.4 90.3047 2201.9 134.885 2181.12C180.609 2159.03 225.19 2122.66 270.914 2125.26C315.495 2127.86 361.219 2170.73 405.8 2195.41C451.524 2220.09 496.104 2226.58 518.966 2229.18L541.828 2233.08V2251.26H518.966C496.104 2251.26 451.524 2251.26 405.8 2251.26C361.219 2251.26 315.495 2251.26 270.914 2251.26C225.19 2251.26 180.609 2251.26 134.885 2251.26C90.3047 2251.26 44.5808 2251.26 22.8619 2251.26H0V2214.89Z" fill="#2EBDAD"/>
<path fill-rule="evenodd" clip-rule="evenodd" d="M542 2214.89L519.138 2210.99C497.419 2208.4 451.695 2201.9 407.115 2181.12C361.391 2159.03 316.81 2122.66 271.086 2125.26C226.505 2127.86 180.781 2170.73 136.2 2195.41C90.4765 2220.09 45.8957 2226.58 23.0337 2229.18L0.171753 2233.08V2251.26H23.0337C45.8957 2251.26 90.4765 2251.26 136.2 2251.26C180.781 2251.26 226.505 2251.26 271.086 2251.26C316.81 2251.26 361.391 2251.26 407.115 2251.26C451.695 2251.26 497.419 2251.26 519.138 2251.26H542V2214.89Z" fill="#2EBDAD"/>
<path fill-rule="evenodd" clip-rule="evenodd" d="M500 2214.89L522.862 2210.99C544.581 2208.4 590.305 2201.9 634.885 2181.12C680.609 2159.03 725.19 2122.66 770.914 2125.26C815.495 2127.86 861.219 2170.73 905.8 2195.41C951.524 2220.09 996.104 2226.58 1018.97 2229.18L1041.83 2233.08V2251.26H1018.97C996.104 2251.26 951.524 2251.26 905.8 2251.26C861.219 2251.26 815.495 2251.26 770.914 2251.26C725.19 2251.26 680.609 2251.26 634.885 2251.26C590.305 2251.26 544.581 2251.26 522.862 2251.26H500V2214.89Z" fill="#2EBDAD"/>
<path fill-rule="evenodd" clip-rule="evenodd" d="M1080 2214.67L1055.53 2210.77C1032.28 2208.18 983.333 2201.69 935.612 2180.93C886.667 2158.87 838.945 2122.54 790 2125.13C742.278 2127.73 693.333 2170.55 645.612 2195.2C596.667 2219.86 548.945 2226.34 524.473 2228.94L500 2232.83V2251H524.473C548.945 2251 596.667 2251 645.612 2251C693.333 2251 742.278 2251 790 2251C838.945 2251 886.667 2251 935.612 2251C983.333 2251 1032.28 2251 1055.53 2251H1080V2214.67Z" fill="#2EBDAD"/>
<path fill-rule="evenodd" clip-rule="evenodd" d="M1542 2214.89L1519.14 2210.99C1497.42 2208.4 1451.7 2201.9 1407.11 2181.12C1361.39 2159.03 1316.81 2122.66 1271.09 2125.26C1226.51 2127.86 1180.78 2170.73 1136.2 2195.41C1090.48 2220.09 1045.9 2226.58 1023.03 2229.18L1000.17 2233.08V2251.26H1023.03C1045.9 2251.26 1090.48 2251.26 1136.2 2251.26C1180.78 2251.26 1226.51 2251.26 1271.09 2251.26C1316.81 2251.26 1361.39 2251.26 1407.11 2251.26C1451.7 2251.26 1497.42 2251.26 1519.14 2251.26H1542V2214.89Z" fill="#2EBDAD"/>
<path d="M1255.59 2805.94H-12V2236H1255.59V2805.94Z" fill="#2EBDAD"/>
<path fill-rule="evenodd" clip-rule="evenodd" d="M0 1959.89L22.8619 1955.99C44.5808 1953.4 90.3047 1946.9 134.885 1926.12C180.609 1904.03 225.19 1867.66 270.914 1870.26C315.495 1872.86 361.219 1915.73 405.8 1940.41C451.524 1965.09 496.104 1971.58 518.966 1974.18L541.828 1978.08V1996.26H518.966C496.104 1996.26 451.524 1996.26 405.8 1996.26C361.219 1996.26 315.495 1996.26 270.914 1996.26C225.19 1996.26 180.609 1996.26 134.885 1996.26C90.3047 1996.26 44.5808 1996.26 22.8619 1996.26H0V1959.89Z" fill="#8ACED7"/>
<path fill-rule="evenodd" clip-rule="evenodd" d="M542 1959.89L519.138 1955.99C497.419 1953.4 451.695 1946.9 407.115 1926.12C361.391 1904.03 316.81 1867.66 271.086 1870.26C226.505 1872.86 180.781 1915.73 136.2 1940.41C90.4765 1965.09 45.8957 1971.58 23.0337 1974.18L0.171753 1978.08V1996.26H23.0337C45.8957 1996.26 90.4765 1996.26 136.2 1996.26C180.781 1996.26 226.505 1996.26 271.086 1996.26C316.81 1996.26 361.391 1996.26 407.115 1996.26C451.695 1996.26 497.419 1996.26 519.138 1996.26H542V1959.89Z" fill="#8ACED7"/>
<path fill-rule="evenodd" clip-rule="evenodd" d="M498.709 1955.99H522.862C544.581 1953.4 590.305 1946.9 634.886 1926.12C680.61 1904.03 725.191 1867.66 770.915 1870.26C815.495 1872.86 861.219 1915.73 905.8 1940.41C951.524 1965.09 996.105 1971.58 1018.97 1974.18L1041.83 1978.08V1996.26H1018.97C996.105 1996.26 951.524 1996.26 905.8 1996.26C861.219 1996.26 815.495 1996.26 770.915 1996.26C725.191 1996.26 680.61 1996.26 634.886 1996.26C590.305 1996.26 544.581 1996.26 522.862 1996.26H500.001L498.709 1955.99Z" fill="#8ACED7"/>
<path fill-rule="evenodd" clip-rule="evenodd" d="M1080 1959.67L1055.53 1955.77C1032.28 1953.18 983.333 1946.69 935.612 1925.93C886.667 1903.87 838.945 1867.54 790 1870.13C742.278 1872.73 693.333 1915.55 645.612 1940.2C596.667 1964.86 548.945 1971.35 524.473 1973.94L500 1977.83V1996H524.473C548.945 1996 596.667 1996 645.612 1996C693.333 1996 742.278 1996 790 1996C838.945 1996 886.667 1996 935.612 1996C983.333 1996 1032.28 1996 1055.53 1996H1080V1959.67Z" fill="#8ACED7"/>
<path fill-rule="evenodd" clip-rule="evenodd" d="M1542 1959.89L1519.14 1955.99C1497.42 1953.4 1451.7 1946.9 1407.11 1926.12C1361.39 1904.03 1316.81 1867.66 1271.09 1870.26C1226.51 1872.86 1180.78 1915.73 1136.2 1940.41C1090.48 1965.09 1045.9 1971.58 1023.03 1974.18L1000.17 1978.08V1996.26H1023.03C1045.9 1996.26 1090.48 1996.26 1136.2 1996.26C1180.78 1996.26 1226.51 1996.26 1271.09 1996.26C1316.81 1996.26 1361.39 1996.26 1407.11 1996.26C1451.7 1996.26 1497.42 1996.26 1519.14 1996.26H1542V1959.89Z" fill="#8ACED7"/>
</g>
</svg>
