<svg xmlns="http://www.w3.org/2000/svg" width="512" height="512" viewBox="0 0 512 512">
  <defs>
    <linearGradient id="bgGrad" x1="0%" y1="0%" x2="100%" y2="100%">
      <stop offset="0%" stop-color="#A8D5BA"/>
      <stop offset="100%" stop-color="#7FBF9A"/>
    </linearGradient>
  </defs>

  <!-- Rounded square background -->
  <rect x="16" y="16" width="480" height="480" rx="110" ry="110" fill="url(#bgGrad)"/>

  <!-- Subtle inner shadow/highlight -->
  <rect x="16" y="16" width="480" height="480" rx="110" ry="110" fill="none" stroke="rgba(255,255,255,0.25)" stroke-width="4"/>

  <!-- Kitten -->
  <g transform="translate(36, 26) scale(2)">
    <!-- Tail -->
    <path d="M 155 140 Q 175 120 170 100 Q 165 80 150 95" fill="none" stroke="#F4C295" stroke-width="10" stroke-linecap="round"/>

    <!-- Body -->
    <ellipse cx="100" cy="155" rx="55" ry="40" fill="#FFE4C4"/>
    <ellipse cx="100" cy="155" rx="35" ry="25" fill="#FFF0D9"/>

    <!-- Ears -->
    <path d="M 55 75 L 45 35 L 85 55 Z" fill="#FFE4C4"/>
    <path d="M 58 68 L 52 42 L 78 56 Z" fill="#FFB7C5"/>
    <path d="M 145 75 L 155 35 L 115 55 Z" fill="#FFE4C4"/>
    <path d="M 142 68 L 148 42 L 122 56 Z" fill="#FFB7C5"/>

    <!-- Head -->
    <circle cx="100" cy="90" r="50" fill="#FFE4C4"/>

    <!-- Blush -->
    <ellipse cx="65" cy="105" rx="8" ry="5" fill="#FFB7C5" opacity="0.5"/>
    <ellipse cx="135" cy="105" rx="8" ry="5" fill="#FFB7C5" opacity="0.5"/>

    <!-- Eyes -->
    <ellipse cx="75" cy="85" rx="12" ry="14" fill="#FFFFFF"/>
    <ellipse cx="75" cy="85" rx="7" ry="9" fill="#4A3728"/>
    <circle cx="78" cy="81" r="3" fill="#FFFFFF"/>
    <ellipse cx="125" cy="85" rx="12" ry="14" fill="#FFFFFF"/>
    <ellipse cx="125" cy="85" rx="7" ry="9" fill="#4A3728"/>
    <circle cx="128" cy="81" r="3" fill="#FFFFFF"/>

    <!-- Nose -->
    <ellipse cx="100" cy="102" rx="5" ry="4" fill="#FFB7C5"/>

    <!-- Mouth (smile - idle state) -->
    <path d="M 92 108 Q 100 115 108 108" fill="none" stroke="#4A3728" stroke-width="2" stroke-linecap="round"/>

    <!-- Whiskers -->
    <line x1="45" y1="95" x2="70" y2="100" stroke="#C4A882" stroke-width="1.5" stroke-linecap="round"/>
    <line x1="42" y1="105" x2="68" y2="105" stroke="#C4A882" stroke-width="1.5" stroke-linecap="round"/>
    <line x1="45" y1="115" x2="70" y2="110" stroke="#C4A882" stroke-width="1.5" stroke-linecap="round"/>
    <line x1="155" y1="95" x2="130" y2="100" stroke="#C4A882" stroke-width="1.5" stroke-linecap="round"/>
    <line x1="158" y1="105" x2="132" y2="105" stroke="#C4A882" stroke-width="1.5" stroke-linecap="round"/>
    <line x1="155" y1="115" x2="130" y2="110" stroke="#C4A882" stroke-width="1.5" stroke-linecap="round"/>

    <!-- Paws -->
    <ellipse cx="70" cy="185" rx="12" ry="8" fill="#FFE4C4"/>
    <ellipse cx="70" cy="187" rx="7" ry="5" fill="#FFB7C5"/>
    <ellipse cx="130" cy="185" rx="12" ry="8" fill="#FFE4C4"/>
    <ellipse cx="130" cy="187" rx="7" ry="5" fill="#FFB7C5"/>
  </g>
</svg>